<svg width="200" height="200" viewBox="0 0 200 200" fill="none" xmlns="http://www.w3.org/2000/svg">
  <!-- Background gradient -->
  <rect width="200" height="200" fill="url(#paint0_linear)"/>
  
  <!-- Group of people icon representing a club -->
  <g transform="translate(50, 70)">
    <!-- Person 1 (left) -->
    <circle cx="25" cy="25" r="15" fill="white" opacity="0.9"/>
    <path d="M 10 55 Q 10 35 25 35 Q 40 35 40 55 L 40 65 L 10 65 Z" fill="white" opacity="0.9"/>
    
    <!-- Person 2 (center, larger) -->
    <circle cx="50" cy="20" r="18" fill="white"/>
    <path d="M 27 58 Q 27 35 50 35 Q 73 35 73 58 L 73 70 L 27 70 Z" fill="white"/>
    
    <!-- Person 3 (right) -->
    <circle cx="75" cy="25" r="15" fill="white" opacity="0.9"/>
    <path d="M 60 55 Q 60 35 75 35 Q 90 35 90 55 L 90 65 L 60 65 Z" fill="white" opacity="0.9"/>
  </g>
  
  <!-- Gradient definition -->
  <defs>
    <linearGradient id="paint0_linear" x1="0" y1="0" x2="200" y2="200" gradientUnits="userSpaceOnUse">
      <stop stop-color="#6366F1"/>
      <stop offset="1" stop-color="#8B5CF6"/>
    </linearGradient>
  </defs>
</svg>
